<mxfile host="app.diagrams.net" modified="2023-04-26T20:45:12.964Z" agent="Mozilla/5.0 (Windows NT 10.0; Win64; x64) AppleWebKit/537.36 (KHTML, like Gecko) Chrome/112.0.0.0 Safari/537.36" version="21.2.2" etag="mwWNhdzWyJFP49HVZ2Pk" type="github">
  <diagram name="Страница 1" id="uCkCfdFgk3JPWik6IX2C">
    <mxGraphModel>
      <root>
        <mxCell id="0" />
        <mxCell id="1" parent="0" />
      </root>
    </mxGraphModel>
  </diagram>
</mxfile>
